<svg xmlns="http://www.w3.org/2000/svg" viewBox="0 0 106.74 27.14"><title>polymath-logo</title><path d="M17.72,7.92C17,.42-.83,2.73,0,8.34a1,1,0,0,0,2,0c0-.11.17-2.29,4.37-2.95-.32,6.82-4.15,15.73-4.19,15.83,1.06,6.2,6-9,6.2-16,6.49-.08,9.26,1.57,6,6.49-1.18,1.33-3.08,2.07-5.66,2.22a1,1,0,1,0,.12,2C13.84,16.25,18.36,11.58,17.72,7.92Z"/><path d="M27,8.75c-6.7-5.57-15.26,9.6-7.18,12.75C24.32,23.62,31.6,13.14,27,8.75ZM25.44,16c-2.42,5.93-8.87,4-6.5-1.93C21,8.15,29.2,7.59,25.44,16Z"/><path d="M47.48,7.66c-2-.34-2.57,8.08-3.55,9.88-.57,1.31-3.55,3.14-4.4,1.4-.81-3.33,2.27-6.34,1.9-9.8-1.26-4.26-4.85.77-5.3,3-1.24,2.34-2.49,7.32-5.4,7.5-.3-.15-.08-.65,0-1.2C30.8,17,37.9-4.16,32.93.74c-1.6,5.59-3,11.27-4.3,16.9a4.41,4.41,0,0,0,0,2.3C34,26.08,36,12.19,39.31,9.86c-.4,2.78-2.49,5.57-2.08,8.58A3.67,3.67,0,0,0,43,21c-.31,2.59-3.84,5.51-5.76,3.36,0,0,.07-.18.56-.41a1,1,0,0,0-.87-1.81c-3.72,2.05-.69,5,1.93,5,7.38-.73,7.06-11.62,9.38-18.27A1,1,0,0,0,47.48,7.66Z"/><path d="M106,16.48c-1.83-.32-1.45,3.15-3.36,3.16-1.91-1.54,3.69-8.31,1.4-11-.86-1.81-5-1.34-6.36,0l1.8-7.21a1,1,0,0,0-2-.49l-3,12.2a.64.64,0,0,0-.06.24L93.32,18.1c-1.54.73-3.36,1.71-5.08,1.74-.73-.09-1.09-.23-1-.9l.8-3c.53-2,1-4,1.51-5.95l3.39,0a1.15,1.15,0,0,0-.1-2.3l-2.77.13c-.06-1.28,2.3-5.38.28-5.43a1,1,0,0,0-1.21.7Q88.49,5.56,87.86,8l-3,.15a.9.9,0,0,0,0,1.8l2.5,0c-.72,2.74-1.4,5.6-2.1,8.37-.26,1-4,2.48-4.3,1.1-.57-2.13,3.57-10.56,1.71-11.3-.84-.28-1.33.38-1.44,1.09-4.76-6.1-10.61,4-9.46,8.81-.22.84-2.33.72-3.24,1-.24-3.06.43-6.09.93-9.1,0-1.53,2.72-7.68-.7-5.8C66.29,7.59,62,13.49,59.51,16.81A46.69,46.69,0,0,1,57,3.14H57c0-1.24-2-1.16-2,0a12.68,12.68,0,0,1-.5,2.4c-.78,2-3.83,15.83-6.49,13.8-1.06-1-2.16.32-1.31,1.2,6,4,7.4-7.85,9-11.47,2.85,16.72,3.92,10.53,11.5.7-.53,3.58-1.64,7.68-.14,11.07,1.68,1.28,3.35-1.36,5-1.64,1,3.17,5,2.88,6.85.64.6,3.22,4.66,1.13,6.27,0,1.45,3.34,5.57.94,7.72-.15-.29.8-.5,2.18.74,2.21a1,1,0,0,0,1-.76l1.84-7.41c0-.79,3.15-5.75,6-4,.64,1-.62,4-1.23,5.4-3.55,6.58,3.5,9.14,5.51,2.54A1,1,0,0,0,106,16.48ZM80.14,13c-.61,2.34-.59,4.85-3.1,5.9-1.3.86-2.7.62-2.9-1.2-.15-2.52.75-5.91,2.6-7.6A2.25,2.25,0,0,1,80.14,13Z"/></svg>